<?xml version="1.0" ?><!DOCTYPE svg  PUBLIC '-//W3C//DTD SVG 1.1//EN'  'http://www.w3.org/Graphics/SVG/1.1/DTD/svg11.dtd'><svg enable-background="new 0 0 512 512" height="512px" id="Layer_1" version="1.1" viewBox="0 0 512 512" width="512px" xml:space="preserve" xmlns="http://www.w3.org/2000/svg" xmlns:xlink="http://www.w3.org/1999/xlink"><g><path clip-rule="evenodd" d="M182.318,13.829h137.036c98.353,0,178.815,80.47,178.815,178.821   v137.034c0,98.348-80.462,178.816-178.815,178.816H182.318C83.963,508.5,3.5,428.032,3.5,329.684V192.65   C3.5,94.299,83.963,13.829,182.318,13.829L182.318,13.829z" fill="#2CA9E0" fill-rule="evenodd"/><path clip-rule="evenodd" d="M186.165,3.5h139.85C426.387,3.5,508.5,85.618,508.5,185.985   v139.851c0,63.88-33.267,120.363-83.331,152.987c46.398-32.977,76.814-87.15,76.814-148.081V191.589   c0-99.868-81.704-181.575-181.572-181.575H181.26c-60.907,0-115.054,30.391-148.04,76.753C65.853,36.74,122.311,3.5,186.165,3.5   L186.165,3.5z" fill="#2CA9E0" fill-rule="evenodd"/><path clip-rule="evenodd" d="M362.766,183.158c-10.071,4.469-20.904,7.489-32.258,8.845   c11.594-6.956,20.513-17.951,24.697-31.074c-10.838,6.438-15.775-21.48-28.567-18.957   c-25.224-20.637-104.258,13.794-104.258,71.014c0,4.415,0.493,8.687,1.449,12.8l-78.498-35.851l-4.516-49.36l-32.749,26.523   c-4.828,8.31-7.6,17.949-7.6,28.244c0,19.479,9.913,36.682,24.977,46.749c-9.198-0.289-17.861-2.831-25.436-7.028v0.705   c0,27.211,19.366,49.912,45.049,55.075c-4.704,1.28-9.682,1.981-14.795,1.981c-3.61,0-7.146-0.362-10.566-1.022   c7.148,22.316,27.887,38.547,52.459,39.017l-16.69,9.883l-21.107-0.344l-30.07-10.909L89.01,354.071   c24.853,15.923,54.376,25.223,86.105,25.223c103.304,0,159.793-85.567,159.793-159.793c0.002-2.426-0.063-4.851-0.156-7.279   C345.705,204.319,355.217,194.424,362.766,183.158L362.766,183.158z" fill="#1C7AA3" fill-rule="evenodd"/><path d="M383.699,165.267c7.977-2.586,16.183-6.302,24.012-9.449c-6.319,12.716-9.976,19.699-20.164,30.262   c-4.207,4.37-8.764,8.427-13.613,12.115c0.041,1.513,0.086,3.034,0.086,4.544c0,41.473-17.049,86.372-49.56,118.884   c-27.739,27.742-66.68,46.5-115.82,46.5c-16.068,0-31.644-2.324-46.391-6.646c-25.099-7.347-38.511-16.001-57.961-32.028   c10.546,1.293,20.974,3.061,31.632,3.061c12.3,0,24.112-2.057,35.096-5.841c6.931-2.392,13.536-5.462,19.732-9.132   c-7.632-2.039-14.68-5.502-20.836-10.082c-10.229-7.605-18.028-18.306-22-30.708l-2.867-8.947l9.189,1.759   c-4.627-3.251-8.785-7.112-12.35-11.475c-8.712-10.647-13.945-24.261-13.945-39.074v-0.705v-9.463l8.294,4.596   c1.469,0.814,2.984,1.56,4.544,2.231c-1.897-2.525-3.599-5.19-5.093-7.991c-4.65-8.701-7.286-18.616-7.286-29.096   c0-5.532,0.739-10.926,2.125-16.07c1.422-5.294,3.538-10.317,6.239-14.965l4.053-6.97l5.093,6.248   c13.59,16.672,30.599,30.453,49.949,40.259c16.746,8.495,35.26,14.018,54.826,15.876c-0.244-2.272-0.371-4.521-0.371-6.732   c0-17.031,6.92-32.466,18.091-43.641l0.02-0.02c11.174-11.172,26.612-18.09,43.643-18.09c8.663,0,16.972,1.818,24.532,5.087   c6.832,2.956,13.021,7.096,18.29,12.155c5.003-1.133,9.883-2.615,14.603-4.417c10.374-3.969,17.275-8.522,26.277-14.589   C393.925,146.651,393.012,153.499,383.699,165.267L383.699,165.267z M379.917,177.935c-5.019,1.28-10.105,2.24-15.237,2.849   l-3.513-10.324c5.249-3.147,9.903-7.234,13.715-12.029c0.472-0.594,0.929-1.198,1.376-1.811c-0.929,0.382-1.858,0.753-2.796,1.112   c-6.192,2.364-12.655,4.236-19.319,5.547l-3.013,0.599l-2.116-2.254c-4.718-5.026-10.442-9.085-16.826-11.848   c-6.129-2.65-12.939-4.123-20.124-4.123c-13.973,0-26.625,5.66-35.776,14.8c-9.138,9.148-14.8,21.799-14.8,35.771   c0,2.055,0.108,4.019,0.316,5.866c0.215,1.926,0.547,3.832,0.977,5.687l1.664,7.18l-7.358-0.371   c-23.758-1.187-46.195-7.385-66.255-17.553c-18.151-9.201-34.381-21.659-47.92-36.605c-0.619,1.619-1.153,3.271-1.61,4.964   c-1.125,4.18-1.729,8.604-1.729,13.186c0,8.651,2.145,16.778,5.927,23.856c3.936,7.365,9.646,13.65,16.558,18.268l-3.273,10.193   c-4.969-0.156-9.809-0.913-14.418-2.184c-1.55-0.43-3.081-0.922-4.582-1.467c1.46,8.923,5.258,17.065,10.738,23.763   c7.272,8.895,17.501,15.275,29.145,17.617l0.369,10.846c-2.536,0.687-5.24,1.239-8.082,1.614c-2.76,0.371-5.507,0.565-8.179,0.565   c-0.569,0-1.157-0.009-1.761-0.032c3.54,6.655,8.527,12.42,14.531,16.887c8.194,6.094,18.29,9.779,29.211,9.987l3.343,9.951   c-10.281,8.057-21.909,14.459-34.469,18.786c-9.325,3.214-19.172,5.299-29.381,6.095c6.477,2.934,13.188,5.43,20.095,7.455   c13.679,4.01,28.208,6.167,43.29,6.167c45.865,0,82.14-17.438,107.922-43.217c30.359-30.364,46.281-72.278,46.281-110.99   c0-2.369-0.048-4.711-0.133-7.08l-0.111-2.964l2.426-1.752C370.418,187.05,375.307,182.73,379.917,177.935L379.917,177.935z" fill="#2CA9E0"/><path clip-rule="evenodd" d="M396.29,166.397c-10.076,4.469-20.906,7.489-32.261,8.844   c11.594-6.954,20.515-17.951,24.697-31.072c-10.839,6.436-22.857,11.117-35.654,13.636c-10.254-10.926-24.857-17.743-41.007-17.743   c-31.02,0-56.166,25.151-56.166,56.166c0,4.41,0.497,8.685,1.449,12.795c-46.671-2.333-88.054-24.69-115.763-58.687   c-4.826,8.307-7.598,17.951-7.598,28.246c0,19.479,9.91,36.682,24.975,46.744c-9.198-0.283-17.858-2.824-25.432-7.026v0.707   c0,27.209,19.364,49.912,45.049,55.075c-4.709,1.275-9.684,1.98-14.8,1.98c-3.61,0-7.141-0.362-10.563-1.022   c7.145,22.317,27.884,38.548,52.456,39.018c-19.208,15.055-43.421,24.039-69.756,24.039c-4.524,0-8.993-0.276-13.385-0.787   c24.853,15.924,54.376,25.224,86.108,25.224c103.301,0,159.79-85.567,159.79-159.796c0.002-2.426-0.063-4.851-0.154-7.277   C379.229,187.557,388.742,177.664,396.29,166.397L396.29,166.397z" fill="#FFFFFF" fill-rule="evenodd"/></g><rect fill="none" height="512" width="512" x="0" y="0"/></svg>