<?xml version="1.0" ?><!DOCTYPE svg  PUBLIC '-//W3C//DTD SVG 1.1 Tiny//EN'  'http://www.w3.org/Graphics/SVG/1.1/DTD/svg11-tiny.dtd'><svg baseProfile="tiny" height="256px" id="Layer_1" version="1.1" viewBox="0 0 256 256" width="256px" xml:space="preserve" xmlns="http://www.w3.org/2000/svg" xmlns:xlink="http://www.w3.org/1999/xlink"><g><path d="M91.231,7.154h68.383c49.077,0,89.231,40.155,89.231,89.233v68.381   c0,49.077-40.154,89.231-89.231,89.231H91.231C42.152,254,2,213.846,2,164.769V96.388C2,47.309,42.152,7.154,91.231,7.154   L91.231,7.154z" fill="#CD332C" fill-rule="evenodd"/><path d="M93.151,2h69.787C213.023,2,254,42.978,254,93.062v69.787   c0,31.877-16.603,60.062-41.584,76.342c23.154-16.456,38.333-43.489,38.333-73.894V95.859c0-49.835-40.772-90.607-90.609-90.607   H90.703c-30.392,0-57.413,15.166-73.872,38.301C33.115,18.587,61.287,2,93.151,2L93.151,2z" fill="#CD332C" fill-rule="evenodd"/><path d="M113.728,37.203h-9.332l-6.296,24.204l-6.552-24.204h-9.716   c1.946,5.708,3.973,11.454,5.918,17.171c2.959,8.596,4.808,15.075,5.643,19.502v24.963h9.233V73.876L113.728,37.203L113.728,37.203   z M196.14,154.587c0,10.624-0.007,21.898-2.389,32.217c-1.665,7.244-7.589,12.587-14.73,13.39   c-16.9,1.884-34.008,1.897-51.032,1.884c-17.03,0.014-34.134,0-51.034-1.884c-7.138-0.803-13.066-6.146-14.727-13.39   c-2.372-10.319-2.372-21.593-2.372-32.217c0-10.638,0.022-21.889,2.398-32.221c1.665-7.241,7.592-12.589,14.729-13.384   c16.9-1.892,34.005-1.896,51.034-1.892c17.022-0.005,34.132,0,51.033,1.892c7.138,0.795,13.065,6.143,14.728,13.384   C196.152,132.698,196.14,143.95,196.14,154.587L196.14,154.587z M98.729,131.66v-8.595H70.008v8.595h9.691v52.409h9.159V131.66   H98.729L98.729,131.66z M115.369,184.07v-4.955c-3.269,3.754-6.38,5.584-9.409,5.584c-2.657,0-4.486-1.076-5.305-3.382   c-0.454-1.383-0.73-3.547-0.73-6.757v-35.944h8.234v33.467c0,1.924,0,2.935,0.076,3.201c0.201,1.277,0.826,1.924,1.927,1.924   c1.651,0,3.386-1.277,5.208-3.851v-34.742h8.246v45.454H115.369L115.369,184.07z M146.666,171.081c0,4.106-1.209,6.127-3.585,6.127   c-1.354,0-2.73-0.647-4.106-2.021v-27.709c1.376-1.352,2.753-2.001,4.106-2.001c2.376,0,3.585,2.107,3.585,6.204V171.081   L146.666,171.081z M154.901,170.434v-18.105c0-4.298-0.284-7.308-0.832-9.139c-1.099-3.402-3.299-5.126-6.583-5.126   c-3.025,0-5.848,1.658-8.51,4.925v-19.922h-8.233v61.004h8.233v-4.402c2.753,3.402,5.579,5.031,8.51,5.031   c3.285,0,5.485-1.726,6.583-5.108C154.617,177.667,154.899,174.637,154.901,170.434L154.901,170.434z M177.749,155.988h-8.233   v-4.203c0-4.201,1.379-6.308,4.133-6.308c2.721,0,4.1,2.107,4.1,6.308V155.988L177.749,155.988z M185.99,169.527v-1.198h-8.411   c0,3.305-0.101,5.126-0.176,5.573c-0.474,2.202-1.66,3.307-3.684,3.307c-2.824,0-4.203-2.096-4.203-6.308v-8.052h16.474v-9.415   c0-4.862-0.83-8.413-2.556-10.712c-2.306-3.116-5.584-4.659-9.715-4.659c-4.203,0-7.488,1.543-9.861,4.659   c-1.755,2.299-2.547,5.85-2.547,10.712v15.924c0,4.819,0.898,8.413,2.644,10.681c2.378,3.107,5.656,4.661,9.974,4.661   c4.298,0,7.675-1.629,9.961-4.927c0.992-1.457,1.638-3.116,1.918-4.934C185.884,174.008,185.99,172.178,185.99,169.527   L185.99,169.527z M138.4,83.969V67.878c0-4.908-0.844-8.494-2.589-10.82c-2.307-3.135-5.54-4.707-9.708-4.707   c-4.147,0-7.391,1.573-9.693,4.707c-1.773,2.326-2.606,5.912-2.606,10.82v16.091c0,4.882,0.833,8.499,2.606,10.805   c2.302,3.132,5.546,4.703,9.693,4.703c4.168,0,7.401-1.571,9.708-4.703C137.556,92.468,138.4,88.851,138.4,83.969L138.4,83.969z    M130.071,85.536c0,4.249-1.286,6.376-3.967,6.376c-2.687,0.001-3.976-2.127-3.976-6.376V66.211c0-4.252,1.289-6.365,3.976-6.365   c2.681,0,3.967,2.114,3.967,6.365V85.536L130.071,85.536z M169.18,98.839v-45.93h-8.325v35.106   c-1.85,2.605-3.596,3.896-5.259,3.896c-1.121,0.001-1.769-0.659-1.951-1.951c-0.102-0.27-0.102-1.286-0.102-3.24V52.909h-8.298   v36.319c0,3.24,0.282,5.441,0.74,6.828c0.828,2.331,2.676,3.421,5.358,3.421c3.037,0,6.195-1.849,9.512-5.65v5.012H169.18   L169.18,98.839z" fill="#FFFFFF" fill-rule="evenodd"/><path d="M113.728,37.203h-9.332l-6.296,24.204l-6.552-24.204h-9.716   c1.946,5.708,3.973,11.454,5.918,17.171c2.959,8.596,4.808,15.075,5.643,19.502v24.963h9.233V73.876L113.728,37.203L113.728,37.203   z M196.14,154.587c0,10.624-0.007,21.898-2.389,32.217c-1.665,7.244-7.589,12.587-14.73,13.39   c-16.9,1.884-34.008,1.897-51.032,1.884c-17.03,0.014-34.134,0-51.034-1.884c-7.138-0.803-13.066-6.146-14.727-13.39   c-2.372-10.319-2.372-21.593-2.372-32.217c0-10.638,0.022-21.889,2.398-32.221c1.665-7.241,7.592-12.589,14.729-13.384   c16.9-1.892,34.005-1.896,51.034-1.892c17.022-0.005,34.132,0,51.033,1.892c7.138,0.795,13.065,6.143,14.728,13.384   C196.152,132.698,196.14,143.95,196.14,154.587L196.14,154.587z M98.729,131.66v-8.595H70.008v8.595h9.691v52.409h9.159V131.66   H98.729L98.729,131.66z M115.369,184.07v-4.955c-3.269,3.754-6.38,5.584-9.409,5.584c-2.657,0-4.486-1.076-5.305-3.382   c-0.454-1.383-0.73-3.547-0.73-6.757v-35.944h8.234v33.467c0,1.924,0,2.935,0.076,3.201c0.201,1.277,0.826,1.924,1.927,1.924   c1.651,0,3.386-1.277,5.208-3.851v-34.742h8.246v45.454H115.369L115.369,184.07z M146.666,171.081c0,4.106-1.209,6.127-3.585,6.127   c-1.354,0-2.73-0.647-4.106-2.021v-27.709c1.376-1.352,2.753-2.001,4.106-2.001c2.376,0,3.585,2.107,3.585,6.204V171.081   L146.666,171.081z M154.901,170.434v-18.105c0-4.298-0.284-7.308-0.832-9.139c-1.099-3.402-3.299-5.126-6.583-5.126   c-3.025,0-5.848,1.658-8.51,4.925v-19.922h-8.233v61.004h8.233v-4.402c2.753,3.402,5.579,5.031,8.51,5.031   c3.285,0,5.485-1.726,6.583-5.108C154.617,177.667,154.899,174.637,154.901,170.434L154.901,170.434z M177.749,155.988h-8.233   v-4.203c0-4.201,1.379-6.308,4.133-6.308c2.721,0,4.1,2.107,4.1,6.308V155.988L177.749,155.988z M185.99,169.527v-1.198h-8.411   c0,3.305-0.101,5.126-0.176,5.573c-0.474,2.202-1.66,3.307-3.684,3.307c-2.824,0-4.203-2.096-4.203-6.308v-8.052h16.474v-9.415   c0-4.862-0.83-8.413-2.556-10.712c-2.306-3.116-5.584-4.659-9.715-4.659c-4.203,0-7.488,1.543-9.861,4.659   c-1.755,2.299-2.547,5.85-2.547,10.712v15.924c0,4.819,0.898,8.413,2.644,10.681c2.378,3.107,5.656,4.661,9.974,4.661   c4.298,0,7.675-1.629,9.961-4.927c0.992-1.457,1.638-3.116,1.918-4.934C185.884,174.008,185.99,172.178,185.99,169.527   L185.99,169.527z M138.4,83.969V67.878c0-4.908-0.844-8.494-2.589-10.82c-2.307-3.135-5.54-4.707-9.708-4.707   c-4.147,0-7.391,1.573-9.693,4.707c-1.773,2.326-2.606,5.912-2.606,10.82v16.091c0,4.882,0.833,8.499,2.606,10.805   c2.302,3.132,5.546,4.703,9.693,4.703c4.168,0,7.401-1.571,9.708-4.703C137.556,92.468,138.4,88.851,138.4,83.969L138.4,83.969z    M130.071,85.536c0,4.249-1.286,6.376-3.967,6.376c-2.687,0.001-3.976-2.127-3.976-6.376V66.211c0-4.252,1.289-6.365,3.976-6.365   c2.681,0,3.967,2.114,3.967,6.365V85.536L130.071,85.536z M169.18,98.839v-45.93h-8.325v35.106   c-1.85,2.605-3.596,3.896-5.259,3.896c-1.121,0.001-1.769-0.659-1.951-1.951c-0.102-0.27-0.102-1.286-0.102-3.24V52.909h-8.298   v36.319c0,3.24,0.282,5.441,0.74,6.828c0.828,2.331,2.676,3.421,5.358,3.421c3.037,0,6.195-1.849,9.512-5.65v5.012H169.18   L169.18,98.839z" fill="#FFFFFF" fill-rule="evenodd"/><path d="M152.451,107.203l10.4,3.542l9.117-9.117l-13.902-51.509l-9.552,7.209l-6.058-7.209   l-23.558,22.044l0.458,28.641c0,3.24,9.443,2.227,9.902,3.615c0.827,2.329,2.676,3.421,5.358,3.421   C140.796,107.842,142.123,107.203,152.451,107.203L152.451,107.203z" fill="#962621" fill-rule="evenodd"/><path d="M121.672,92.332V76.242c0-4.908,6.176-24.355,4.431-26.681   c-12.29,0.5-21.167,8.703-26.42,15.86c-1.774,2.326-2.607,5.912-2.607,10.82v16.091c0,4.883,0.833,8.499,2.607,10.806   c2.301,3.132,6.046,3.204,10.193,3.204c4.168,0,18.647-1.258,25.318-7.776C136.939,96.259,121.672,97.216,121.672,92.332   L121.672,92.332z" fill="#962621" fill-rule="evenodd"/><path d="M95.547,41.313l-7.878,4.255l-9.725-11.153L65.106,45.568   c1.945,5.708,3.973,11.453,5.918,17.17c2.958,8.596,4.806,15.076,5.642,19.502v24.964l16.672,0.477l11.359-1.909l-0.209-5.899   l-4.98-34.212l10.371-26.051l-7.275-5.195L95.547,41.313L95.547,41.313z" fill="#962621" fill-rule="evenodd"/><path d="M193.061,170.657c0.289-5.227,0.289-10.732,0.289-16.07v-0.154c0-10.453,0-21.501-2.283-31.447   c-0.697-3.042-2.295-5.692-4.46-7.659c-2.157-1.96-4.887-3.249-7.86-3.579c-8.406-0.94-16.828-1.412-25.241-1.646   c-8.517-0.236-17.017-0.236-25.487-0.235c-8.476-0.001-16.976-0.001-25.489,0.235c-8.418,0.234-16.838,0.706-25.24,1.646   c-2.974,0.33-5.704,1.619-7.86,3.579c-2.168,1.967-3.762,4.618-4.461,7.659c-1.147,4.992-1.73,10.237-2.025,15.528   c-0.292,5.23-0.297,10.73-0.297,16.073c0,5.345,0.001,10.858,0.285,16.081c0.286,5.286,0.862,10.527,2.009,15.515   c0.698,3.041,2.291,5.692,4.458,7.659c2.156,1.961,4.888,3.251,7.862,3.585c8.402,0.934,16.824,1.408,25.239,1.642   c8.514,0.235,17.014,0.235,25.49,0.23c8.473,0.005,16.974,0.005,25.486-0.23c8.415-0.234,16.84-0.708,25.241-1.642   c2.974-0.332,5.706-1.624,7.865-3.585c2.164-1.967,3.759-4.616,4.458-7.659C192.188,181.195,192.77,175.95,193.061,170.657   L193.061,170.657z" fill="#336699"/><path d="M178.019,171.314c0,5.284-0.002,10.735-0.313,16.377c-0.304,5.577,19.12-2.773,17.893,2.556   c-2.705,10.089-14.306,26.879-37.183,29.44c-8.494,0.947-17.083,1.426-25.698,1.665c-8.516,0.237-17.092,0.237-25.638,0.232   c-8.549,0.004-17.126,0.004-25.642-0.232c-8.615-0.239-17.203-0.718-25.697-1.665c-4.175-0.467-7.994-2.265-11.001-5   c-2.981-2.71-5.173-6.353-6.133-10.536c-1.225-5.329-1.84-10.888-2.142-16.472c-0.307-5.645-0.308-11.089-0.308-16.366   c0-5.291,0.007-10.741,0.319-16.377c0.31-5.575,0.931-11.127,2.157-16.463c5.694-21.249,21.094-27.715,38.045-32.258   c8.494-0.951-3.827,15.297,4.789,15.058c8.514-0.236,17.089-0.237,25.64-0.234c8.546-0.003,17.121-0.002,25.638,0.234   c8.616,0.239,17.203,0.718,25.699,1.67c4.174,0.465,7.993,2.261,10.998,4.995c2.983,2.708,5.178,6.352,6.137,10.535   c2.437,10.62,2.439,21.959,2.439,32.687V171.314L178.019,171.314z" fill="#962621"/><path d="M198.929,154.587c0,5.284-0.004,10.734-0.313,16.377c-0.307,5.577-0.925,11.132-2.152,16.461   c-0.961,4.185-3.156,7.826-6.136,10.536c-3.007,2.734-6.827,4.532-11.001,4.999c-8.494,0.948-17.083,1.426-25.699,1.665   c-8.514,0.235-17.09,0.237-25.637,0.232c-8.549,0.005-17.126,0.002-25.642-0.232c-8.615-0.239-17.203-0.717-25.697-1.665   c-4.175-0.467-7.994-2.265-11.001-4.999c-2.981-2.71-5.173-6.355-6.133-10.536c-1.225-5.329-1.839-10.888-2.142-16.472   c-0.307-5.647-0.308-11.089-0.308-16.366c0-5.291,0.007-10.742,0.319-16.377c0.31-5.577,0.931-11.128,2.157-16.464   c0.961-4.183,3.155-7.826,6.139-10.535c3.005-2.734,6.824-4.53,10.997-4.995c8.494-0.951,17.082-1.431,25.697-1.67   c8.516-0.235,17.09-0.237,25.642-0.234c8.546-0.003,17.121-0.001,25.638,0.234c8.616,0.239,17.203,0.718,25.699,1.67   c4.176,0.465,7.993,2.261,10.998,4.995c2.983,2.708,5.178,6.352,6.137,10.535c2.436,10.618,2.439,21.96,2.439,32.687V154.587   L198.929,154.587z" fill="#CD332C"/><path d="M196.14,154.587c0,10.624-0.007,21.898-2.389,32.217   c-1.665,7.244-7.589,12.587-14.73,13.39c-16.9,1.884-34.008,1.897-51.032,1.884c-17.03,0.014-34.134,0-51.034-1.884   c-7.138-0.803-13.066-6.146-14.727-13.39c-2.372-10.319-2.372-21.593-2.372-32.217c0-10.638,0.022-21.889,2.398-32.221   c1.665-7.241,7.592-12.589,14.729-13.384c16.9-1.892,34.005-1.896,51.034-1.892c17.022-0.005,34.132,0,51.033,1.892   c7.138,0.795,13.065,6.143,14.728,13.384C196.152,132.698,196.14,143.95,196.14,154.587L196.14,154.587z" fill="#FFFFFF" fill-rule="evenodd"/><path d="M138.917,178.7c-0.65-0.413-1.287-0.927-1.902-1.541l-0.828-0.826v-1.146v-27.709v-1.155l0.84-0.826   c0.625-0.616,1.261-1.13,1.903-1.537l-2.743-0.972v-17.133h-2.655v55.426h2.655v-1.613L138.917,178.7L138.917,178.7z" fill="#336699"/><path d="M149.455,171.081c0,2.536-0.433,4.537-1.29,5.999c-1.135,1.94-2.827,2.91-5.058,2.917   c0.492,0.429,0.979,0.783,1.462,1.067c0.966,0.566,1.94,0.846,2.917,0.846c1.011,0,1.814-0.232,2.405-0.69   c0.641-0.496,1.153-1.331,1.53-2.484c0.219-0.806,0.386-1.846,0.503-3.12c0.131-1.437,0.199-3.165,0.199-5.182h-0.011v-18.105   c0-2.15-0.063-3.894-0.187-5.245c-0.119-1.302-0.295-2.335-0.523-3.098l0.004-0.002c-0.37-1.121-0.88-1.938-1.523-2.437   c-0.591-0.46-1.394-0.695-2.396-0.695c-1.017,0-2.019,0.289-2.996,0.857c-0.458,0.266-0.918,0.591-1.374,0.979   c2.229,0.009,3.917,1.006,5.049,2.962l0.004-0.005c0.853,1.476,1.286,3.495,1.286,6.035V171.081L149.455,171.081z" fill="#336699"/><path d="M109.158,180.92c0.44-0.262,0.888-0.573,1.342-0.932l-0.34,0.009c-1.322,0-2.41-0.44-3.271-1.311   c-0.702-0.711-1.151-1.631-1.362-2.761c-0.157-0.668-0.158-1.798-0.158-3.842v-30.678h-2.657v33.156   c0,1.498,0.058,2.709,0.16,3.662c0.103,0.954,0.25,1.69,0.429,2.234c0.187,0.499,0.449,0.848,0.773,1.056   c0.424,0.266,1.059,0.399,1.885,0.399C106.973,181.911,108.04,181.581,109.158,180.92L109.158,180.92z" fill="#336699"/><path d="M118.157,179.115v2.166h2.669v-39.877h-2.669v31.953l-0.523,1.602c-0.869,1.227-1.74,2.222-2.61,2.983   L118.157,179.115L118.157,179.115z" fill="#336699"/><polygon fill="#336699" points="95.94,128.871 95.94,125.856 72.797,125.856 72.797,128.871 79.699,128.871 82.487,128.871    82.487,131.66 82.487,181.281 86.069,181.281 86.069,131.66 86.069,128.871 88.857,128.871 95.94,128.871  "/><path d="M185.99,169.527v-1.198h-8.411c0,3.305-0.101,5.126-0.176,5.573   c-0.474,2.202-1.66,3.307-3.684,3.307c-2.824,0-4.203-2.096-4.203-6.308v-8.052h16.474v-9.415c0-4.862-0.83-8.413-2.556-10.712   c-2.306-3.116-5.584-4.659-9.715-4.659c-4.203,0-7.488,1.543-9.861,4.659c-1.755,2.299-2.547,5.85-2.547,10.712v15.924   c0,4.819,0.898,8.413,2.644,10.681c2.378,3.107,5.656,4.661,9.974,4.661c4.298,0,7.675-1.629,9.961-4.927   c0.992-1.457,1.638-3.116,1.918-4.934C185.884,174.008,185.99,172.178,185.99,169.527L185.99,169.527z M177.749,155.988h-8.233   v-4.203c0-4.201,1.379-6.308,4.133-6.308c2.721,0,4.1,2.107,4.1,6.308V155.988L177.749,155.988z" fill="#CD332C" fill-rule="evenodd"/><path d="M154.901,170.434v-18.105c0-4.298-0.284-7.308-0.832-9.139   c-1.099-3.402-3.299-5.126-6.583-5.126c-3.025,0-5.848,1.658-8.51,4.925v-19.922h-8.233v61.004h8.233v-4.402   c2.753,3.402,5.579,5.031,8.51,5.031c3.285,0,5.485-1.726,6.583-5.108C154.617,177.667,154.899,174.637,154.901,170.434   L154.901,170.434z M146.666,171.081c0,4.106-1.209,6.127-3.585,6.127c-1.354,0-2.73-0.647-4.106-2.021v-27.709   c1.376-1.352,2.753-2.001,4.106-2.001c2.376,0,3.585,2.107,3.585,6.204V171.081L146.666,171.081z" fill="#CD332C" fill-rule="evenodd"/><path d="M115.369,184.07v-4.955c-3.269,3.754-6.38,5.584-9.409,5.584   c-2.657,0-4.486-1.076-5.305-3.382c-0.454-1.383-0.73-3.547-0.73-6.757v-35.944h8.234v33.467c0,1.924,0,2.935,0.076,3.201   c0.201,1.277,0.826,1.924,1.927,1.924c1.651,0,3.386-1.277,5.208-3.851v-34.742h8.246v45.454H115.369L115.369,184.07z" fill="#CD332C" fill-rule="evenodd"/><polygon fill="#CD332C" fill-rule="evenodd" points="98.729,131.66 98.729,123.066 70.008,123.066 70.008,131.66 79.699,131.66    79.699,184.07 88.857,184.07 88.857,131.66 98.729,131.66  "/><path d="M166.391,96.05V55.698h-2.748v32.317l-0.523,1.612c-0.875,1.233-1.76,2.237-2.646,3.012l3.17,1.188v2.223   H166.391L166.391,96.05z" fill="#336699"/><path d="M109.971,39.993h-3.429l-5.751,22.111l-5.381,0.024l-5.991-22.135h-3.69l1.628,4.72   c1.206,3.476,2.449,7.057,3.026,8.759l0.003-0.002c1.437,4.179,2.641,7.95,3.611,11.308c0.985,3.407,1.692,6.269,2.129,8.587   l0.055,0.512V96.05h3.655V73.876l0.122-0.808L109.971,39.993L109.971,39.993z" fill="#336699"/><path d="M109.971,39.993h-3.429l-5.751,22.111l-5.381,0.024l-5.991-22.135h-3.69l1.628,4.72   c1.206,3.476,2.449,7.057,3.026,8.759l0.003-0.002c1.437,4.179,2.641,7.95,3.611,11.308c0.985,3.407,1.692,6.269,2.129,8.587   l0.055,0.512V96.05h3.655V73.876l0.122-0.808L109.971,39.993L109.971,39.993z" fill="#336699"/><path d="M171.968,52.909v45.93v2.79h-2.788h-8.325h-2.789v-1.567c-0.219,0.144-0.438,0.282-0.657,0.413   c-2.026,1.198-4.05,1.793-6.066,1.793c-1.877,0-3.522-0.428-4.9-1.305c-1.419-0.906-2.459-2.227-3.082-3.98l-0.023-0.054   c-0.289-0.877-0.521-2.006-0.672-3.407c-0.133-1.242-0.21-2.67-0.21-4.293V52.909v-2.79h2.788h8.298h2.788v2.79v33.812v2.103   l0.167-0.117c0.487-0.36,1.011-0.897,1.568-1.604V52.909v-2.79h2.789h8.325h2.788V52.909L171.968,52.909z" fill="#CD332C"/><path d="M141.189,67.878v16.091c0,2.652-0.237,4.992-0.718,7.01c-0.517,2.179-1.329,4.006-2.437,5.473l-0.002-0.002   c-1.422,1.922-3.147,3.375-5.168,4.357c-2.006,0.972-4.263,1.461-6.761,1.461c-2.49,0-4.744-0.488-6.747-1.462   c-2.033-0.985-3.768-2.45-5.19-4.387l0.001-0.001c-1.119-1.473-1.924-3.292-2.437-5.439l0.01-0.001   c-0.49-2.049-0.727-4.388-0.727-7.009V67.878c0-2.636,0.237-4.975,0.727-7.019l-0.01-0.002c0.513-2.155,1.321-3.969,2.435-5.444   c1.422-1.937,3.154-3.404,5.188-4.39c2.006-0.972,4.257-1.462,6.749-1.462c2.499,0,4.756,0.49,6.761,1.461   c2.033,0.986,3.765,2.455,5.191,4.392l-0.003,0.001c1.101,1.476,1.909,3.29,2.419,5.443   C140.952,62.874,141.189,65.213,141.189,67.878L141.189,67.878z M138.4,83.969V67.878c0-4.908-0.844-8.494-2.589-10.82   c-2.307-3.135-5.54-4.707-9.708-4.707c-4.147,0-7.391,1.573-9.693,4.707c-1.773,2.326-2.606,5.912-2.606,10.82v16.091   c0,4.882,0.833,8.499,2.606,10.805c2.302,3.132,5.546,4.703,9.693,4.703c4.168,0,7.401-1.571,9.708-4.703   C137.556,92.468,138.4,88.851,138.4,83.969L138.4,83.969z" fill="#CD332C"/><path d="M104.396,34.415h9.332h3.759l-1.09,3.595l-10.981,36.276v24.553v2.79h-2.79h-9.233h-2.789v-2.79V74.096   c-0.412-2.114-1.058-4.705-1.945-7.77c-0.889-3.076-2.068-6.756-3.544-11.048v-0.011c-1.403-4.129-2.191-6.39-3.007-8.747   c-1.201-3.47-2.431-7.014-2.91-8.424l-1.254-3.681h3.89h9.716h2.131l0.56,2.069l3.811,14.079l3.656-14.056l0.545-2.092H104.396   L104.396,34.415z" fill="#CD332C"/><path d="M113.728,37.203h-9.332l-6.296,24.204l-6.552-24.204h-9.716   c1.946,5.708,3.973,11.454,5.918,17.171c2.959,8.596,4.808,15.075,5.643,19.502v24.963h9.233V73.876L113.728,37.203L113.728,37.203   z M138.4,83.969V67.878c0-4.908-0.844-8.494-2.589-10.82c-2.307-3.135-5.54-4.707-9.708-4.707c-4.147,0-7.391,1.573-9.693,4.707   c-1.773,2.326-2.606,5.912-2.606,10.82v16.091c0,4.882,0.833,8.499,2.606,10.805c2.302,3.132,5.546,4.703,9.693,4.703   c4.168,0,7.401-1.571,9.708-4.703C137.556,92.468,138.4,88.851,138.4,83.969L138.4,83.969z M130.071,85.536   c0,4.249-1.286,6.376-3.967,6.376c-2.687,0.001-3.976-2.127-3.976-6.376V66.211c0-4.252,1.289-6.365,3.976-6.365   c2.681,0,3.967,2.114,3.967,6.365V85.536L130.071,85.536z M169.18,98.839v-45.93h-8.325v35.106   c-1.85,2.605-3.596,3.896-5.259,3.896c-1.121,0.001-1.769-0.659-1.951-1.951c-0.102-0.27-0.102-1.286-0.102-3.24V52.909h-8.298   v36.319c0,3.24,0.282,5.441,0.74,6.828c0.828,2.331,2.676,3.421,5.358,3.421c3.037,0,6.195-1.849,9.512-5.65v5.012H169.18   L169.18,98.839z" fill="#FFFFFF" fill-rule="evenodd"/><path d="M130.071,85.536c0,4.249-1.286,6.376-3.967,6.376   c-2.687,0.001-3.976-2.127-3.976-6.376V66.211c0-4.252,1.289-6.365,3.976-6.365c2.681,0,3.967,2.114,3.967,6.365V85.536   L130.071,85.536z M127.476,83.762c0,3.47-0.447,5.204-1.375,5.204c-0.932,0.002-1.38-1.734-1.38-5.204V67.985   c0-3.469,0.448-5.197,1.38-5.197c0.928,0,1.375,1.728,1.375,5.197V83.762L127.476,83.762z" fill="#CD332C" fill-rule="evenodd"/></g><rect fill="none" height="256" width="256" x="0" y="0"/></svg>